<svg xmlns="http://www.w3.org/2000/svg" width="12" height="12" viewBox="0 0 12 12" fill="none">
  <path d="M 9.545 0.42 L 11.579 2.451 C 12.14 3.011 12.14 3.92 11.579 4.481 L 9.785 6.272 C 9.627 6.429 9.508 6.621 9.437 6.833 L 8.755 8.876 C 8.417 9.888 7.13 10.192 6.374 9.437 L 4.851 7.916 L 0.917 11.843 C 0.707 12.052 0.367 12.052 0.157 11.843 C -0.052 11.633 -0.052 11.294 0.157 11.084 L 4.091 7.158 L 2.546 5.616 C 1.79 4.861 2.094 3.576 3.108 3.239 L 5.155 2.558 C 5.367 2.487 5.559 2.369 5.717 2.211 L 7.511 0.42 C 8.073 -0.14 8.983 -0.14 9.545 0.42 Z" fill="currentColor" fill-rule="nonzero"></path>
</svg>