<svg xmlns="http://www.w3.org/2000/svg" width="21" height="17" viewBox="0 0 21 17" fill="none">
  <path d="M 7.35 4.781 C 7.35 5.661 6.645 6.375 5.775 6.375 C 4.905 6.375 4.2 5.661 4.2 4.781 C 4.2 3.901 4.905 3.188 5.775 3.188 C 6.645 3.188 7.35 3.901 7.35 4.781 Z" fill="currentColor" fill-rule="nonzero"></path>
  <path d="M 4.2 0 L 16.8 0 C 19.12 0 21 1.903 21 4.25 L 21 12.75 C 21 15.097 19.12 17 16.8 17 L 4.2 17 C 1.88 17 0 15.097 0 12.75 L 0 4.25 C 0 1.903 1.88 0 4.2 0 Z M 16.8 1.594 L 4.2 1.594 C 2.75 1.594 1.575 2.783 1.575 4.25 L 1.575 12.75 C 1.575 13.597 1.967 14.351 2.577 14.838 L 4.768 12.226 C 5.494 11.215 7.005 11.283 7.64 12.354 C 8.378 13.598 10.205 13.441 10.725 12.089 L 11.884 9.074 C 12.384 7.773 14.15 7.635 14.841 8.843 L 18.506 14.769 C 19.068 14.282 19.425 13.558 19.425 12.75 L 19.425 4.25 C 19.425 2.783 18.25 1.594 16.8 1.594 Z" fill="currentColor" fill-rule="evenodd"></path>
</svg>