<svg xmlns="http://www.w3.org/2000/svg" width="4" height="22" viewBox="0 0 4 22" fill="none">
  <path d="M 4 19.928 C 4 20.496 3.804 20.983 3.411 21.39 C 3.019 21.797 2.548 22 2 22 C 1.452 22 0.981 21.797 0.589 21.39 C 0.196 20.983 0 20.496 0 19.928 C 0 19.36 0.196 18.872 0.589 18.466 C 0.981 18.059 1.452 17.856 2 17.856 C 2.363 17.856 2.696 17.952 3 18.143 C 3.304 18.328 3.548 18.577 3.733 18.892 C 3.911 19.199 4 19.544 4 19.928 Z" fill="currentColor" fill-rule="nonzero"></path>
  <path d="M 4 11 C 4 11.568 3.804 12.055 3.411 12.462 C 3.019 12.869 2.548 13.072 2 13.072 C 1.452 13.072 0.981 12.869 0.589 12.462 C 0.196 12.055 0 11.568 0 11 C 0 10.432 0.196 9.945 0.589 9.538 C 0.981 9.131 1.452 8.928 2 8.928 C 2.363 8.928 2.696 9.024 3 9.216 C 3.304 9.4 3.548 9.649 3.733 9.964 C 3.911 10.271 4 10.616 4 11 Z" fill="currentColor" fill-rule="nonzero"></path>
  <path d="M 4 2.072 C 4 2.64 3.804 3.128 3.411 3.534 C 3.019 3.941 2.548 4.144 2 4.144 C 1.452 4.144 0.981 3.941 0.589 3.534 C 0.196 3.128 0 2.64 0 2.072 C 0 1.504 0.196 1.017 0.589 0.61 C 0.981 0.203 1.452 0 2 0 C 2.363 0 2.696 0.096 3 0.288 C 3.304 0.472 3.548 0.721 3.733 1.036 C 3.911 1.343 4 1.688 4 2.072 Z" fill="currentColor" fill-rule="nonzero"></path>
</svg>