<svg xmlns="http://www.w3.org/2000/svg" width="21" height="19" viewBox="0 0 21 19" fill="none">
  <path d="M 5.178 0 C 2.191 0 -0.176 2.51 0.01 5.479 L 0.555 14.165 C 0.607 14.984 0.849 15.751 1.238 16.422 C 2.135 17.967 3.814 19 5.723 19 L 15.03 19 C 16.937 19 18.616 17.969 19.514 16.422 C 19.537 16.383 19.556 16.341 19.572 16.299 L 20.792 13.043 C 21.149 12.092 21.026 11.112 20.577 10.324 C 20.61 10.237 20.628 10.142 20.628 10.043 L 20.628 8.598 C 20.832 5.713 18.537 3.257 15.63 3.257 L 13.072 3.257 C 12.621 3.257 12.255 2.893 12.255 2.443 C 12.255 1.094 11.157 0 9.802 0 L 5.178 0 Z M 13.639 8.686 C 13.277 8.686 13.001 8.361 13.061 8.005 C 13.287 6.656 12.242 5.429 10.869 5.429 L 7.402 5.429 C 4.924 5.429 2.795 7.184 2.333 9.61 L 2.075 10.968 L 2.012 11.265 L 1.642 5.377 C 1.515 3.346 3.134 1.629 5.178 1.629 L 9.802 1.629 C 10.254 1.629 10.62 1.993 10.62 2.443 C 10.62 3.792 11.718 4.886 13.072 4.886 L 15.63 4.886 C 17.596 4.886 19.146 6.553 18.995 8.505 C 18.993 8.526 18.993 8.547 18.993 8.568 L 18.993 8.926 C 18.616 8.772 18.2 8.686 17.757 8.686 L 13.639 8.686 Z" fill="currentColor" fill-rule="evenodd"></path>
</svg>