<svg xmlns="http://www.w3.org/2000/svg" width="18" height="22" viewBox="0 0 18 22" fill="none">
  <path d="M 9 0 C 4.029 0 0 3.949 0 9.026 C 0 12.893 2.61 15.451 3.855 16.451 C 4.244 16.764 4.5 17.229 4.5 17.729 C 4.5 18.531 5.148 19.181 5.948 19.181 L 12.052 19.181 C 12.852 19.181 13.5 18.531 13.5 17.729 C 13.5 17.229 13.756 16.764 14.145 16.451 C 15.39 15.451 18 12.893 18 9.026 C 18 3.949 13.971 0 9 0 Z" fill="currentColor" fill-rule="nonzero"></path>
  <path d="M 5.764 20.039 C 5.304 19.962 4.869 20.274 4.793 20.735 C 4.716 21.196 5.027 21.632 5.486 21.708 C 7.813 22.097 10.187 22.097 12.514 21.708 C 12.973 21.632 13.284 21.196 13.207 20.735 C 13.131 20.274 12.696 19.962 12.236 20.039 C 10.094 20.397 7.906 20.397 5.764 20.039 Z" fill="currentColor" fill-rule="nonzero"></path>
</svg>